HIERARCHY
ROOT Hips
{
  OFFSET 265.287 66.7526 -254.649
  CHANNELS 6 Xposition Yposition Zposition Zrotation Xrotation Yrotation
  JOINT LeftUpLeg
  {
    OFFSET 8.64259 1.95398 -2.38835
    CHANNELS 3 Zrotation Xrotation Yrotation
    JOINT LeftLeg
    {
      OFFSET 43.7702 0 0
      CHANNELS 3 Zrotation Xrotation Yrotation
      JOINT LeftFoot
      {
        OFFSET 40.6238 0 0
        CHANNELS 3 Zrotation Xrotation Yrotation
        JOINT LeftToeBase
        {
          OFFSET 12.7242 0 0
          CHANNELS 3 Zrotation Xrotation Yrotation
          End Site
          {
            OFFSET 0 0 0
          }
        }
      }
    }
  }
  JOINT RightUpLeg
  {
    OFFSET -8.2249 1.95398 -2.59336
    CHANNELS 3 Zrotation Xrotation Yrotation
    JOINT RightLeg
    {
      OFFSET 43.5653 0 0
      CHANNELS 3 Zrotation Xrotation Yrotation
      JOINT RightFoot
      {
        OFFSET 40.6238 0 0
        CHANNELS 3 Zrotation Xrotation Yrotation
        JOINT RightToeBase
        {
          OFFSET 12.7242 0 0
          CHANNELS 3 Zrotation Xrotation Yrotation
          End Site
          {
            OFFSET 0 0 0
          }
        }
      }
    }
  }
  JOINT Spine
  {
    OFFSET 0.165834 0.87714 6.61349
    CHANNELS 3 Zrotation Xrotation Yrotation
    JOINT Spine1
    {
      OFFSET 7.38963 1.71661e-005 0
      CHANNELS 3 Zrotation Xrotation Yrotation
      JOINT Spine2
      {
        OFFSET 11.9445 1.14441e-005 0
        CHANNELS 3 Zrotation Xrotation Yrotation
        JOINT Spine3
        {
          OFFSET 14.7254 4.19617e-005 0
          CHANNELS 3 Zrotation Xrotation Yrotation
          JOINT Spine4
          {
            OFFSET 10.9679 0 0
            CHANNELS 3 Zrotation Xrotation Yrotation
            JOINT RightShoulder
            {
              OFFSET 2.46616 -1.6653 3.69651
              CHANNELS 3 Zrotation Xrotation Yrotation
              JOINT RightArm
              {
                OFFSET 13.0012 0 0
                CHANNELS 3 Zrotation Xrotation Yrotation
                JOINT RightForeArm
                {
                  OFFSET 28.7848 1.52588e-005 0
                  CHANNELS 3 Zrotation Xrotation Yrotation
                  JOINT RightHand
                  {
                    OFFSET 26.5688 1.52588e-005 0
                    CHANNELS 3 Zrotation Xrotation Yrotation
                    End Site
                    {
                      OFFSET 0 0 0
                    }
                  }
                }
              }
            }
            JOINT LeftShoulder
            {
              OFFSET 2.38034 -1.29275 -3.7523
              CHANNELS 3 Zrotation Xrotation Yrotation
              JOINT LeftArm
              {
                OFFSET 16.3182 6.10351e-005 0
                CHANNELS 3 Zrotation Xrotation Yrotation
                JOINT LeftForeArm
                {
                  OFFSET 27.0901 0 0
                  CHANNELS 3 Zrotation Xrotation Yrotation
                  JOINT LeftHand
                  {
                    OFFSET 24.5451 1.52588e-005 0
                    CHANNELS 3 Zrotation Xrotation Yrotation
                    End Site
                    {
                      OFFSET 0 0 0
                    }
                  }
                }
              }
            }
            JOINT Neck
            {
              OFFSET 5.0226 -0.0266342 0
              CHANNELS 3 Zrotation Xrotation Yrotation
              JOINT Head
              {
                OFFSET 6.69364 2.86102e-005 0
                CHANNELS 3 Zrotation Xrotation Yrotation
                End Site
                {
                  OFFSET 0 0 0
                }
              }
            }
          }
        }
      }
    }
  }
}
MOTION
Frames:	10
Frame Time:	0.0416667
-137.495 97.1104 21.4875 144.151 -87.5691 143.938 -173.723 -0.94288 90.1108 -10.1862 19.1413 2.38238 57.5045 1.15035 14.1411 38.8167 -3.06418 -2.079 176.847 2.91657 89.3601 -16.0495 -4.10379 -1.67947 59.072 4.96037 18.2574 30.6964 -0.373747 0.977742 -0.24558 7.05888 -90.1009 12.7559 -0.535907 -0.137897 1.08507 -0.541452 -0.114189 -21.4508 -0.469684 -0.292591 -1.43809 -0.469683 -0.292587 101.184 -51.8021 -83.6635 30.4337 -0.967559 -6.18021 -1.1477 -17.4114 -11.2672 -12.3285 -0.823255 2.6589 -81.7339 -51.029 91.0358 -24.9692 12.0553 -15.9465 3.76207 25.9655 -7.11408 4.18931 -0.0517711 -3.64644 -1.77987 1.9698 -2.34798 -7.32843 2.10877 4.11178 
-137.535 97.1782 21.5346 148.189 -87.7974 147.995 -173.106 -1.20375 90.4095 -9.36296 19.7369 1.88219 57.1389 0.980899 14.4902 38.6215 -2.99574 -2.30592 176.943 2.75781 89.4351 -15.5382 -4.39564 -1.74676 58.8268 4.94465 18.2702 30.8154 -0.360641 0.671797 -0.195731 7.06416 -90.0699 12.7455 -0.422086 -0.0895632 1.07462 -0.425619 -0.0709019 -21.461 -0.375659 -0.21228 -1.44832 -0.375659 -0.212284 101.465 -52.1969 -83.2302 30.4434 -0.926717 -6.34068 -1.23385 -17.5943 -11.4402 -12.4676 -0.859837 2.90058 -81.8903 -50.0175 90.728 -25.7377 12.1479 -16.1169 3.64345 25.8912 -6.81167 3.83232 -0.0485473 -3.60962 -1.20436 1.76111 -4.6093 -7.80857 2.10351 6.24408 
-137.605 97.0978 21.5912 163.15 -87.7579 163.221 -173.226 -0.984293 90.5666 -10.6841 18.5605 2.18442 58.096 1.3469 13.9067 38.4961 -2.96089 -1.99929 176.977 2.71781 89.6926 -16.0465 -5.14462 -1.64981 59.0433 4.77815 17.6783 31.2704 -0.423171 0.677411 -0.146655 7.09226 -90.1465 12.6889 -0.361218 -0.250118 1.018 -0.371878 -0.233982 -21.5172 -0.269344 -0.347114 -1.50456 -0.269349 -0.347123 101.284 -51.6391 -83.5144 30.5379 -1.05668 -6.35741 -1.29493 -17.5267 -11.239 -11.2604 -0.687774 1.9997 -81.8209 -51.3658 90.929 -24.3688 12.5367 -16.1962 3.28608 25.6728 -6.94778 3.63217 -0.0412438 -3.4273 -0.446869 1.77159 -5.9178 -9.11153 2.13403 8.65991 
-137.61 97.1036 21.5813 161.636 -87.6928 161.847 -173.18 -0.960298 90.6916 -10.7645 18.8417 2.24618 58.0469 1.35232 14.14 38.6419 -3.00996 -1.92913 176.938 2.67217 89.8198 -15.9829 -5.12327 -1.52373 58.7796 4.79781 17.2386 31.6356 -0.536455 1.36771 -0.143017 7.10922 -90.1783 12.6549 -0.369109 -0.312821 0.983924 -0.382522 -0.296293 -21.5512 -0.258036 -0.4093 -1.53852 -0.258026 -0.409296 101.431 -51.469 -83.2917 30.5638 -1.14254 -6.52187 -1.2502 -17.4198 -11.2245 -11.3668 -0.694843 1.99551 -81.8666 -51.6942 90.8839 -24.397 12.3855 -16.1389 3.28049 24.6757 -6.95722 4.57962 -0.032027 -3.40862 0.0854245 1.79638 -5.53041 -9.71157 2.1017 8.33641 
-137.627 97.118 21.5995 161.223 -87.645 161.429 -173.1 -1.05377 90.7496 -10.6481 18.8837 2.19087 58.029 1.35144 14.0707 38.5844 -2.98656 -2.15441 176.938 2.59799 89.8392 -15.9702 -5.09157 -1.52556 58.9118 4.73617 17.0675 31.256 -0.496881 1.48553 -0.147644 7.12255 -90.1683 12.6282 -0.373523 -0.292557 0.957318 -0.38605 -0.275835 -21.5778 -0.268339 -0.391294 -1.56518 -0.268336 -0.391291 101.374 -51.5882 -83.3773 30.6599 -0.985456 -6.53241 -1.35013 -17.5684 -11.2707 -11.424 -0.684205 1.84582 -81.9513 -51.2933 90.7288 -24.7858 12.2394 -16.1099 3.62974 25.6839 -7.14257 4.0518 -0.03935 -3.45799 0.0965011 1.67313 -5.78689 -9.50589 2.01741 8.59095 
-137.631 97.1056 21.5899 160.351 -87.6145 160.562 -173.143 -0.986543 90.7422 -10.83 18.7068 2.23982 58.2409 1.42235 13.8289 38.2447 -2.87782 -2.03664 177.045 2.41413 89.8634 -15.701 -4.99337 -1.65469 58.9865 4.74379 17.6973 31.2317 -0.41117 0.593909 -0.151355 7.13063 -90.1688 12.612 -0.381188 -0.292712 0.941081 -0.393693 -0.275669 -21.5941 -0.276291 -0.39372 -1.58144 -0.276293 -0.393735 101.372 -51.5047 -83.3814 30.8336 -0.985526 -6.52832 -1.35729 -17.5272 -11.2982 -11.5175 -0.683876 1.78272 -81.8906 -51.1069 90.8062 -24.7969 12.6686 -16.254 3.36777 25.4092 -7.01247 4.35613 -0.048482 -3.64932 -0.665321 1.47365 -6.87663 -8.26821 1.94484 10.3768 
-137.655 97.1121 21.6104 158.321 -87.6332 158.483 -173.205 -0.98968 90.6818 -10.7171 18.9178 2.26517 57.9189 1.29107 14.0615 38.7491 -3.04308 -2.02527 176.937 2.60582 89.8253 -15.9197 -5.02514 -1.52992 58.7767 4.7763 17.1024 31.4396 -0.526096 1.54112 -0.152531 7.13691 -90.1744 12.6028 -0.38451 -0.303243 0.9319 -0.397706 -0.285963 -21.6033 -0.279143 -0.40526 -1.59061 -0.279142 -0.405269 101.425 -51.3854 -83.3017 30.8232 -1.11566 -6.60812 -1.25508 -17.3068 -11.2689 -11.6402 -0.698744 1.85963 -81.9047 -51.2493 90.7955 -24.9599 12.2952 -16.3176 3.5478 25.656 -7.00256 4.25214 -0.0475575 -3.77174 -0.593831 1.53054 -6.95257 -8.21744 2.01475 10.5255 
-137.673 97.1106 21.636 157.192 -87.6394 157.306 -173.199 -0.99732 90.6671 -10.7078 18.8982 2.23928 58.0701 1.35937 13.9412 38.5142 -2.96935 -1.88239 176.867 2.62292 89.7449 -15.9554 -5.07739 -1.4903 58.7827 4.81376 17.1568 31.6571 -0.5418 1.39689 -0.151493 7.13549 -90.1708 12.6034 -0.381485 -0.296476 0.932515 -0.39424 -0.279365 -21.6026 -0.275494 -0.397669 -1.58999 -0.275496 -0.397677 101.474 -51.5718 -83.2239 30.5599 -1.23739 -6.55282 -1.20353 -17.1243 -11.3278 -11.5727 -0.693072 1.84343 -81.9668 -51.1866 90.6982 -24.563 13.0591 -16.5361 2.8822 25.0669 -6.64551 4.34925 -0.0483706 -3.77859 -0.30535 1.53862 -7.17579 -8.71986 2.0134 10.7311 
-137.671 97.0974 21.6589 154.877 -87.6299 154.96 -173.33 -0.92959 90.5814 -10.784 18.7901 2.32273 58.0156 1.33076 13.9866 38.736 -3.03486 -2.23066 176.833 2.5561 89.7073 -15.8133 -5.06495 -1.47131 58.8833 4.75191 17.1726 31.6657 -0.538936 1.35179 -0.16054 7.13489 -90.1591 12.6036 -0.394719 -0.271692 0.932698 -0.406287 -0.254052 -21.6025 -0.294809 -0.37775 -1.58989 -0.294811 -0.377753 101.469 -51.6527 -83.2304 30.618 -1.15804 -6.56306 -1.22427 -16.9855 -11.2808 -11.4614 -0.674681 1.72173 -81.9682 -50.877 90.6735 -24.7628 13.2842 -16.6091 2.51172 23.9622 -6.28563 4.98884 -0.0506847 -3.8207 0.629649 1.69346 -5.96292 -10.1795 2.03459 8.66126 
-137.663 97.097 21.6923 154.773 -87.6307 154.807 -173.32 -1.06137 90.5442 -10.5692 18.9078 2.28807 57.8832 1.28741 14.0708 38.7432 -3.03837 -2.1721 176.78 2.66377 89.6299 -16.0502 -4.99207 -1.45222 58.876 4.82918 17.3742 31.5267 -0.51276 1.26605 -0.157992 7.13967 -90.1619 12.5861 -0.389815 -0.280431 0.915174 -0.401779 -0.263024 -21.62 -0.289367 -0.384509 -1.60738 -0.289376 -0.384514 101.547 -51.5646 -83.1129 30.8226 -0.805385 -6.64993 -1.50409 -17.6566 -11.3878 -11.3485 -0.687742 1.93196 -82.0553 -51.0911 90.5584 -24.6191 13.15 -16.6892 2.59532 24.6778 -6.23538 4.91188 -0.0562514 -3.82966 0.572802 1.73073 -5.8834 -9.861 2.07826 8.71362 
